<svg width="95" height="28" viewbox="0 0 95 28" fill="none" xmlns="http://www.w3.org/2000/svg">
<path fill-rule="evenodd" clip-rule="evenodd" d="M2.56757 0H92.4324C93.8874 0 95 1.3 95 3V25C95 26.7 93.8874 28 92.4324 28H2.56757C1.11261 28 0 26.7 0 25V3C0 1.3 1.11261 0 2.56757 0Z" fill="#1185FE"></path>
<path d="M29 0H28V28H29V0Z" fill="#0D6DD0"></path>
<path d="M37.233 19V8.81818H40.7926C41.5019 8.81818 42.0869 8.94081 42.5476 9.18608C43.0083 9.42803 43.3513 9.7545 43.5767 10.1655C43.8021 10.5732 43.9148 11.0256 43.9148 11.5227C43.9148 11.9602 43.8369 12.3215 43.6811 12.6065C43.5286 12.8916 43.3265 13.117 43.0746 13.2827C42.826 13.4484 42.5559 13.571 42.2642 13.6506V13.75C42.5758 13.7699 42.889 13.8793 43.2038 14.0781C43.5187 14.277 43.7822 14.562 43.9943 14.9332C44.2064 15.3045 44.3125 15.7585 44.3125 16.2955C44.3125 16.8059 44.1965 17.2649 43.9645 17.6726C43.7325 18.0803 43.3662 18.4034 42.8658 18.642C42.3653 18.8807 41.714 19 40.9119 19H37.233ZM38.4659 17.9062H40.9119C41.7173 17.9062 42.2891 17.7505 42.6271 17.4389C42.9685 17.1241 43.1392 16.7429 43.1392 16.2955C43.1392 15.9508 43.0514 15.6326 42.8757 15.3409C42.7 15.0459 42.4498 14.8106 42.125 14.6349C41.8002 14.456 41.4157 14.3665 40.9716 14.3665H38.4659V17.9062ZM38.4659 13.2926H40.7528C41.1241 13.2926 41.4588 13.2197 41.7571 13.0739C42.0587 12.928 42.2973 12.7225 42.473 12.4574C42.652 12.1922 42.7415 11.8807 42.7415 11.5227C42.7415 11.0753 42.5857 10.6958 42.2741 10.3842C41.9626 10.0694 41.4688 9.91193 40.7926 9.91193H38.4659V13.2926ZM47.3526 8.81818V19H46.1793V8.81818H47.3526ZM54.3141 15.8778V11.3636H55.4874V19H54.3141V17.7074H54.2346C54.0556 18.0952 53.7772 18.425 53.3993 18.6967C53.0215 18.9652 52.5442 19.0994 51.9675 19.0994C51.4902 19.0994 51.066 18.995 50.6948 18.7862C50.3236 18.5741 50.0319 18.2559 49.8198 17.8317C49.6077 17.4041 49.5016 16.8655 49.5016 16.2159V11.3636H50.6749V16.1364C50.6749 16.6932 50.8307 17.1373 51.1422 17.4688C51.4571 17.8002 51.8581 17.9659 52.3453 17.9659C52.637 17.9659 52.9337 17.8913 53.2353 17.7422C53.5402 17.593 53.7954 17.3643 54.0009 17.0561C54.2097 16.7479 54.3141 16.3551 54.3141 15.8778ZM60.8381 19.1591C60.1023 19.1591 59.4676 18.9967 58.9339 18.6719C58.4036 18.3438 57.9943 17.8864 57.706 17.2997C57.4209 16.7098 57.2784 16.0237 57.2784 15.2415C57.2784 14.4593 57.4209 13.7699 57.706 13.1733C57.9943 12.5734 58.3954 12.1061 58.9091 11.7713C59.4261 11.4332 60.0294 11.2642 60.7188 11.2642C61.1165 11.2642 61.5092 11.3305 61.897 11.4631C62.2848 11.5956 62.6378 11.8111 62.956 12.1094C63.2741 12.4044 63.5277 12.7955 63.7166 13.2827C63.9055 13.7699 64 14.3698 64 15.0824V15.5795H58.1136V14.5653H62.8068C62.8068 14.1345 62.7206 13.75 62.5483 13.4119C62.3793 13.0739 62.1373 12.8071 61.8224 12.6115C61.5109 12.416 61.143 12.3182 60.7188 12.3182C60.2514 12.3182 59.8471 12.4342 59.5057 12.6662C59.1676 12.8949 58.9074 13.1932 58.7251 13.5611C58.5429 13.929 58.4517 14.3234 58.4517 14.7443V15.4205C58.4517 15.9972 58.5511 16.486 58.75 16.8871C58.9522 17.2848 59.2322 17.5881 59.5902 17.7969C59.9482 18.0024 60.3641 18.1051 60.8381 18.1051C61.1463 18.1051 61.4247 18.062 61.6733 17.9759C61.9252 17.8864 62.1423 17.7538 62.3246 17.5781C62.5069 17.3991 62.6477 17.1771 62.7472 16.9119L63.8807 17.2301C63.7614 17.6146 63.5608 17.9527 63.2791 18.2443C62.9974 18.5327 62.6494 18.758 62.2351 18.9205C61.8208 19.0795 61.3551 19.1591 60.8381 19.1591ZM71.1939 13.0739L70.1399 13.3722C70.0736 13.1965 69.9759 13.0258 69.8466 12.8601C69.7206 12.6911 69.5483 12.5518 69.3295 12.4425C69.1108 12.3331 68.8307 12.2784 68.4893 12.2784C68.022 12.2784 67.6326 12.3861 67.321 12.6016C67.0128 12.8137 66.8587 13.0838 66.8587 13.4119C66.8587 13.7036 66.9647 13.9339 67.1768 14.103C67.389 14.272 67.7204 14.4129 68.1712 14.5256L69.3047 14.804C69.9875 14.9697 70.4962 15.2232 70.831 15.5646C71.1657 15.9027 71.3331 16.3385 71.3331 16.8722C71.3331 17.3097 71.2071 17.7008 70.9553 18.0455C70.7067 18.3902 70.3587 18.6619 69.9112 18.8608C69.4638 19.0597 68.9434 19.1591 68.3501 19.1591C67.5713 19.1591 66.9266 18.9901 66.4162 18.652C65.9058 18.3139 65.5826 17.8201 65.4467 17.1705L66.5604 16.892C66.6664 17.303 66.867 17.6113 67.1619 17.8168C67.4602 18.0223 67.8497 18.125 68.3303 18.125C68.8771 18.125 69.3113 18.009 69.6328 17.777C69.9576 17.5417 70.12 17.2599 70.12 16.9318C70.12 16.6667 70.0272 16.4446 69.8416 16.2656C69.656 16.0833 69.371 15.9474 68.9865 15.858L67.7138 15.5597C67.0144 15.3939 66.5007 15.1371 66.1726 14.7891C65.8478 14.4377 65.6854 13.9986 65.6854 13.4716C65.6854 13.0407 65.8063 12.6596 66.0483 12.3281C66.2936 11.9967 66.6267 11.7365 67.0476 11.5476C67.4718 11.3587 67.9524 11.2642 68.4893 11.2642C69.245 11.2642 69.8383 11.4299 70.2692 11.7614C70.7034 12.0928 71.0116 12.5303 71.1939 13.0739ZM74.193 16.2159L74.1731 14.7642H74.4118L77.7527 11.3636H79.2044L75.6447 14.9631H75.5453L74.193 16.2159ZM73.0993 19V8.81818H74.2725V19H73.0993ZM77.9515 19L74.9686 15.2216L75.8038 14.4062L79.443 19H77.9515ZM81.4702 21.8636C81.2713 21.8636 81.094 21.8471 80.9382 21.8139C80.7824 21.7841 80.6747 21.7543 80.6151 21.7244L80.9134 20.6903C81.1984 20.7633 81.4503 20.7898 81.669 20.7699C81.8878 20.75 82.0817 20.6522 82.2507 20.4766C82.4231 20.3042 82.5805 20.0241 82.723 19.6364L82.9418 19.0398L80.1179 11.3636H81.3906L83.4986 17.4489H83.5781L85.6861 11.3636H86.9588L83.7173 20.1136C83.5715 20.508 83.3909 20.8345 83.1754 21.093C82.96 21.3549 82.7098 21.5488 82.4247 21.6747C82.143 21.8007 81.8248 21.8636 81.4702 21.8636Z" fill="white"></path>
<path fill-rule="evenodd" clip-rule="evenodd" d="M6.87591 8.01999C6.60078 8.08446 6.3398 8.26701 6.20764 8.48749C5.94311 8.92868 5.93574 9.43946 6.16039 11.7693C6.23808 12.5753 6.3317 13.3535 6.38294 13.6193C6.49205 14.1858 6.79653 14.7053 7.25707 15.1107C7.73353 15.5301 8.32499 15.7858 9.12022 15.9163C9.42815 15.9668 10.3063 15.9855 10.5965 15.9478C10.6779 15.9372 10.5447 15.9761 10.3007 16.0343C8.64163 16.4296 7.74338 17.1494 7.74178 18.0849C7.74066 18.7482 8.23866 19.5022 9.13646 20.1965C10.1642 20.9912 11.0186 21.1858 11.8391 20.8118C12.6616 20.4369 13.2915 19.5503 13.9138 17.8916C13.9448 17.8091 13.9832 17.742 13.9993 17.7425C14.0154 17.743 14.0537 17.8105 14.0845 17.8925C14.5004 19.0014 14.8687 19.6735 15.3577 20.2161C15.7946 20.7008 16.4051 20.9983 16.9662 21C17.6578 21.0021 18.5457 20.5478 19.332 19.7896C20.6859 18.484 20.545 17.2239 18.9602 16.465C18.5556 16.2712 18.2497 16.1671 17.6973 16.0353C17.4532 15.977 17.3267 15.9383 17.4162 15.9492C17.7187 15.986 18.566 15.9667 18.8777 15.916C19.6747 15.7861 20.2565 15.5338 20.7448 15.1063C21.0284 14.858 21.1953 14.6449 21.3646 14.3151C21.6017 13.8532 21.661 13.5401 21.8236 11.892C22.0542 9.55605 22.0571 9.02773 21.8419 8.58221C21.7408 8.37287 21.5351 8.17865 21.3157 8.08525C21.1408 8.0108 21.1074 8.00611 20.7742 8.00897C20.4808 8.01148 20.3734 8.02471 20.1553 8.0852C18.8334 8.45166 17.3603 9.61724 15.7652 11.5588C15.1408 12.3187 14.5012 13.2227 14.1461 13.8473L14.0035 14.0981L13.7623 13.6973C12.7137 11.9543 11.0314 10.0349 9.66091 9.01761C9.10365 8.60397 8.36851 8.22749 7.84498 8.08765C7.55057 8.009 7.06695 7.97524 6.87591 8.01999Z" fill="white"></path>
</svg>
