<svg width="101" height="28" viewbox="0 0 101 28" fill="none" xmlns="http://www.w3.org/2000/svg"><path fill-rule="evenodd" clip-rule="evenodd" d="M2.72973 0H98.2703C99.8171 0 101 1.3 101 3V25C101 26.7 99.8171 28 98.2703 28H2.72973C1.18288 28 0 26.7 0 25V3C0 1.3 1.18288 0 2.72973 0Z" fill="#20A0E1"></path><path d="M29 0H28V28H29V0Z" fill="#1C7FB1"></path><path d="M20.4948 8.18635L18.1498 19.2451C17.9729 20.0256 17.5116 20.2198 16.8559 19.8522L13.283 17.2193L11.559 18.8775C11.3683 19.0682 11.2087 19.2278 10.841 19.2278L11.0977 15.5889L17.7197 9.60511C18.0076 9.34844 17.6573 9.20619 17.2722 9.46289L9.08575 14.6176L5.56138 13.5145C4.79476 13.2752 4.78091 12.7479 5.72093 12.3802L19.5062 7.0694C20.1444 6.83006 20.7029 7.21158 20.4948 8.18635Z" fill="white"></path><path d="M43.082 10.2363H40.252V19H39.1035V10.2363H36.2803V9.19727H43.082V10.2363ZM48.7354 15.7803H43.793C43.8112 16.5596 44.0208 17.1611 44.4219 17.585C44.8229 18.0088 45.3743 18.2207 46.0762 18.2207C46.8646 18.2207 47.5892 17.9609 48.25 17.4414V18.4941C47.6348 18.9408 46.8213 19.1641 45.8096 19.1641C44.8206 19.1641 44.0436 18.8473 43.4785 18.2139C42.9134 17.5758 42.6309 16.6803 42.6309 15.5273C42.6309 14.4382 42.9385 13.5518 43.5537 12.8682C44.1735 12.18 44.9414 11.8359 45.8574 11.8359C46.7734 11.8359 47.4821 12.1322 47.9834 12.7246C48.4847 13.3171 48.7354 14.1396 48.7354 15.1924V15.7803ZM47.5869 14.8301C47.5824 14.1829 47.4251 13.6794 47.1152 13.3193C46.8099 12.9593 46.3838 12.7793 45.8369 12.7793C45.3083 12.7793 44.8594 12.9684 44.4902 13.3467C44.1211 13.7249 43.8932 14.2194 43.8066 14.8301H47.5869ZM51.5586 19H50.4375V8.63672H51.5586V19ZM59.4541 15.7803H54.5117C54.5299 16.5596 54.7396 17.1611 55.1406 17.585C55.5417 18.0088 56.0931 18.2207 56.7949 18.2207C57.5833 18.2207 58.3079 17.9609 58.9688 17.4414V18.4941C58.3535 18.9408 57.54 19.1641 56.5283 19.1641C55.5394 19.1641 54.7624 18.8473 54.1973 18.2139C53.6322 17.5758 53.3496 16.6803 53.3496 15.5273C53.3496 14.4382 53.6572 13.5518 54.2725 12.8682C54.8923 12.18 55.6602 11.8359 56.5762 11.8359C57.4922 11.8359 58.2008 12.1322 58.7021 12.7246C59.2035 13.3171 59.4541 14.1396 59.4541 15.1924V15.7803ZM58.3057 14.8301C58.3011 14.1829 58.1439 13.6794 57.834 13.3193C57.5286 12.9593 57.1025 12.7793 56.5557 12.7793C56.027 12.7793 55.5781 12.9684 55.209 13.3467C54.8398 13.7249 54.612 14.2194 54.5254 14.8301H58.3057ZM67.1309 18.4395C67.1309 21.0098 65.9004 22.2949 63.4395 22.2949C62.5736 22.2949 61.8171 22.1309 61.1699 21.8027V20.6816C61.9583 21.1191 62.7103 21.3379 63.4258 21.3379C65.1484 21.3379 66.0098 20.4219 66.0098 18.5898V17.8242H65.9824C65.4492 18.7174 64.6471 19.1641 63.5762 19.1641C62.7057 19.1641 62.0039 18.8542 61.4707 18.2344C60.9421 17.61 60.6777 16.7738 60.6777 15.7256C60.6777 14.5361 60.9626 13.5905 61.5322 12.8887C62.1064 12.1868 62.8903 11.8359 63.8838 11.8359C64.8271 11.8359 65.5267 12.2142 65.9824 12.9707H66.0098V12H67.1309V18.4395ZM66.0098 15.835V14.8027C66.0098 14.2467 65.8206 13.7705 65.4424 13.374C65.0687 12.9775 64.6016 12.7793 64.041 12.7793C63.3483 12.7793 62.806 13.0322 62.4141 13.5381C62.0221 14.0394 61.8262 14.7435 61.8262 15.6504C61.8262 16.4297 62.013 17.054 62.3867 17.5234C62.765 17.9883 63.264 18.2207 63.8838 18.2207C64.5127 18.2207 65.0231 17.9974 65.415 17.5508C65.8115 17.1042 66.0098 16.5322 66.0098 15.835ZM73.0508 13.1348C72.8548 12.9844 72.5723 12.9092 72.2031 12.9092C71.7246 12.9092 71.3236 13.1348 71 13.5859C70.681 14.0371 70.5215 14.6523 70.5215 15.4316V19H69.4004V12H70.5215V13.4424H70.5488C70.7083 12.9502 70.9521 12.5674 71.2803 12.2939C71.6084 12.016 71.9753 11.877 72.3809 11.877C72.6725 11.877 72.8958 11.9089 73.0508 11.9727V13.1348ZM79.2783 19H78.1572V17.9062H78.1299C77.6423 18.7448 76.9245 19.1641 75.9766 19.1641C75.2793 19.1641 74.7324 18.9795 74.3359 18.6104C73.944 18.2412 73.748 17.7513 73.748 17.1406C73.748 15.8327 74.5182 15.0716 76.0586 14.8574L78.1572 14.5635C78.1572 13.374 77.6764 12.7793 76.7148 12.7793C75.8717 12.7793 75.1107 13.0664 74.4316 13.6406V12.4922C75.1198 12.0547 75.9128 11.8359 76.8105 11.8359C78.4557 11.8359 79.2783 12.7064 79.2783 14.4473V19ZM78.1572 15.459L76.4688 15.6914C75.9492 15.7643 75.5573 15.8942 75.293 16.0811C75.0286 16.2633 74.8965 16.5892 74.8965 17.0586C74.8965 17.4004 75.0173 17.6807 75.2588 17.8994C75.5049 18.1136 75.8307 18.2207 76.2363 18.2207C76.7923 18.2207 77.2503 18.027 77.6104 17.6396C77.9749 17.2477 78.1572 16.7533 78.1572 16.1562V15.459ZM91.3301 19H90.209V14.9805C90.209 14.2057 90.0882 13.6452 89.8467 13.2988C89.6097 12.9525 89.2087 12.7793 88.6436 12.7793C88.165 12.7793 87.7572 12.998 87.4199 13.4355C87.0872 13.873 86.9209 14.3971 86.9209 15.0078V19H85.7998V14.8438C85.7998 13.4674 85.2689 12.7793 84.207 12.7793C83.7148 12.7793 83.3092 12.9867 82.9902 13.4014C82.6712 13.8115 82.5117 14.347 82.5117 15.0078V19H81.3906V12H82.5117V13.1074H82.5391C83.0358 12.2598 83.7604 11.8359 84.7129 11.8359C85.1914 11.8359 85.6084 11.9704 85.9639 12.2393C86.3193 12.5036 86.5632 12.8522 86.6953 13.2852C87.2148 12.319 87.9896 11.8359 89.0195 11.8359C90.5599 11.8359 91.3301 12.7861 91.3301 14.6865V19Z" fill="white"></path></svg>