<svg width="91" height="28" viewbox="0 0 91 28" fill="none" xmlns="http://www.w3.org/2000/svg">
<path fill-rule="evenodd" clip-rule="evenodd" d="M2.45946 0H88.5405C89.9342 0 91 1.3 91 3V25C91 26.7 89.9342 28 88.5405 28H2.45946C1.06577 28 0 26.7 0 25V3C0 1.3 1.06577 0 2.45946 0Z" fill="black"></path>
<path d="M18.135 13.3689C18.0606 13.3332 17.985 13.2988 17.9083 13.2659C17.775 10.8082 16.4321 9.40129 14.1771 9.3868C14.1669 9.3868 14.1567 9.3868 14.1465 9.3868C13.151 9.3868 12.2793 9.70039 11.6133 10.2858C11.2398 10.6142 11.2675 11.2034 11.6775 11.4846C11.9589 11.6776 12.3371 11.6606 12.5944 11.4367C13.08 11.0141 13.6793 10.9113 14.1472 10.9113C14.1541 10.9113 14.161 10.9113 14.1679 10.9113C14.9104 10.9161 15.4706 11.132 15.8331 11.5528C16.0971 11.8593 16.2736 12.2828 16.3609 12.8173C15.7026 12.7054 14.9907 12.6711 14.2297 12.7147C12.0859 12.8382 10.7076 14.0886 10.8002 15.8259C10.8471 16.7072 11.2862 17.4653 12.0364 17.9606C12.6706 18.3792 13.4877 18.584 14.3366 18.5377C15.4578 18.4762 16.3374 18.0485 16.951 17.2663C17.417 16.6723 17.7117 15.9025 17.8418 14.9326C18.3762 15.2551 18.7722 15.6795 18.9909 16.1895C19.3628 17.0566 19.3845 18.4817 18.2217 19.6434C17.203 20.6611 15.9784 21.1014 14.1278 21.1151C12.0749 21.0999 10.5223 20.4415 9.51288 19.1583C8.56774 17.9571 8.07921 16.2215 8.06107 14C8.07935 11.7786 8.56774 10.043 9.51303 8.84132C10.5224 7.55811 12.0749 6.89971 14.1279 6.88452C16.1957 6.89985 17.7753 7.56135 18.8234 8.85088C19.2109 9.32774 19.5268 9.89741 19.7681 10.5465C19.9047 10.9138 20.2922 11.1223 20.6708 11.0213C21.0957 10.9079 21.3382 10.4536 21.1862 10.0408C20.8855 9.22452 20.4811 8.50199 19.9737 7.87761C18.63 6.22443 16.6649 5.37744 14.133 5.35986H14.1229C11.596 5.3773 9.65295 6.22766 8.34753 7.88704C7.18596 9.36374 6.58676 11.4184 6.56665 13.994V14V14.0061C6.58676 16.5816 7.18596 18.6363 8.34753 20.113C9.65295 21.7723 11.596 22.6227 14.1229 22.6401H14.133C16.3795 22.6245 17.9629 22.0364 19.2675 20.7331C20.9742 19.0281 20.9228 16.8908 20.3603 15.5788C19.9565 14.6379 19.1872 13.8737 18.135 13.3689ZM14.2563 17.0157C13.3167 17.0686 12.3406 16.6468 12.2923 15.7435C12.2566 15.0737 12.7691 14.3263 14.314 14.2372C14.4909 14.227 14.6645 14.2221 14.8351 14.2221C15.3962 14.2221 15.9213 14.2766 16.3986 14.381C16.2204 16.6042 15.1763 16.9652 14.2563 17.0157Z" fill="white"></path>
<path d="M29 0H28V28H29V0Z" fill="#1D1D1D"></path>
<path d="M43.082 10.2363H40.252V19H39.1035V10.2363H36.2803V9.19727H43.082V10.2363ZM50.2871 19H49.166V14.9668C49.166 13.5085 48.6237 12.7793 47.5391 12.7793C46.9922 12.7793 46.5319 12.9912 46.1582 13.415C45.7845 13.8343 45.5977 14.3743 45.5977 15.0352V19H44.4766V8.63672H45.5977V13.1621H45.625C46.1628 12.278 46.9284 11.8359 47.9219 11.8359C49.4987 11.8359 50.2871 12.7861 50.2871 14.6865V19ZM56.0566 13.1348C55.8607 12.9844 55.5781 12.9092 55.209 12.9092C54.7305 12.9092 54.3294 13.1348 54.0059 13.5859C53.6868 14.0371 53.5273 14.6523 53.5273 15.4316V19H52.4062V12H53.5273V13.4424H53.5547C53.7142 12.9502 53.958 12.5674 54.2861 12.2939C54.6143 12.016 54.9811 11.877 55.3867 11.877C55.6784 11.877 55.9017 11.9089 56.0566 11.9727V13.1348ZM62.8994 15.7803H57.957C57.9753 16.5596 58.1849 17.1611 58.5859 17.585C58.987 18.0088 59.5384 18.2207 60.2402 18.2207C61.0286 18.2207 61.7533 17.9609 62.4141 17.4414V18.4941C61.7988 18.9408 60.9854 19.1641 59.9736 19.1641C58.9847 19.1641 58.2077 18.8473 57.6426 18.2139C57.0775 17.5758 56.7949 16.6803 56.7949 15.5273C56.7949 14.4382 57.1025 13.5518 57.7178 12.8682C58.3376 12.18 59.1055 11.8359 60.0215 11.8359C60.9375 11.8359 61.6462 12.1322 62.1475 12.7246C62.6488 13.3171 62.8994 14.1396 62.8994 15.1924V15.7803ZM61.751 14.8301C61.7464 14.1829 61.5892 13.6794 61.2793 13.3193C60.974 12.9593 60.5479 12.7793 60.001 12.7793C59.4723 12.7793 59.0234 12.9684 58.6543 13.3467C58.2852 13.7249 58.0573 14.2194 57.9707 14.8301H61.751ZM69.6123 19H68.4912V17.9062H68.4639C67.9762 18.7448 67.2585 19.1641 66.3105 19.1641C65.6133 19.1641 65.0664 18.9795 64.6699 18.6104C64.278 18.2412 64.082 17.7513 64.082 17.1406C64.082 15.8327 64.8522 15.0716 66.3926 14.8574L68.4912 14.5635C68.4912 13.374 68.0104 12.7793 67.0488 12.7793C66.2057 12.7793 65.4447 13.0664 64.7656 13.6406V12.4922C65.4538 12.0547 66.2467 11.8359 67.1445 11.8359C68.7897 11.8359 69.6123 12.7064 69.6123 14.4473V19ZM68.4912 15.459L66.8027 15.6914C66.2832 15.7643 65.8913 15.8942 65.627 16.0811C65.3626 16.2633 65.2305 16.5892 65.2305 17.0586C65.2305 17.4004 65.3512 17.6807 65.5928 17.8994C65.8389 18.1136 66.1647 18.2207 66.5703 18.2207C67.1263 18.2207 67.5843 18.027 67.9443 17.6396C68.3089 17.2477 68.4912 16.7533 68.4912 16.1562V15.459ZM77.6992 19H76.5781V17.8105H76.5508C76.0312 18.7129 75.2292 19.1641 74.1445 19.1641C73.265 19.1641 72.5609 18.8519 72.0322 18.2275C71.5081 17.5986 71.2461 16.7441 71.2461 15.6641C71.2461 14.5065 71.5378 13.5791 72.1211 12.8818C72.7044 12.1846 73.4814 11.8359 74.4521 11.8359C75.4137 11.8359 76.1133 12.2142 76.5508 12.9707H76.5781V8.63672H77.6992V19ZM76.5781 15.835V14.8027C76.5781 14.2376 76.3913 13.7591 76.0176 13.3672C75.6439 12.9753 75.1699 12.7793 74.5957 12.7793C73.9121 12.7793 73.3743 13.0299 72.9824 13.5312C72.5905 14.0326 72.3945 14.7253 72.3945 15.6094C72.3945 16.416 72.5814 17.054 72.9551 17.5234C73.3333 17.9883 73.8392 18.2207 74.4727 18.2207C75.097 18.2207 75.6029 17.9951 75.9902 17.5439C76.3822 17.0928 76.5781 16.5231 76.5781 15.835ZM79.5449 18.7471V17.5439C80.1556 17.9951 80.8278 18.2207 81.5615 18.2207C82.5459 18.2207 83.0381 17.8926 83.0381 17.2363C83.0381 17.0495 82.9948 16.8923 82.9082 16.7646C82.8262 16.6325 82.7122 16.5163 82.5664 16.416C82.4251 16.3158 82.2565 16.2269 82.0605 16.1494C81.8691 16.0674 81.6618 15.9831 81.4385 15.8965C81.1286 15.7734 80.8551 15.6504 80.6182 15.5273C80.3857 15.3997 80.1898 15.2585 80.0303 15.1035C79.8753 14.944 79.7568 14.764 79.6748 14.5635C79.5973 14.363 79.5586 14.1283 79.5586 13.8594C79.5586 13.5312 79.6338 13.2419 79.7842 12.9912C79.9346 12.736 80.1351 12.5241 80.3857 12.3555C80.6364 12.1823 80.9212 12.0524 81.2402 11.9658C81.5638 11.8792 81.8965 11.8359 82.2383 11.8359C82.8444 11.8359 83.3867 11.9408 83.8652 12.1504V13.2852C83.3503 12.9479 82.7578 12.7793 82.0879 12.7793C81.8783 12.7793 81.6891 12.8044 81.5205 12.8545C81.3519 12.9001 81.2061 12.9661 81.083 13.0527C80.9645 13.1393 80.8711 13.2441 80.8027 13.3672C80.7389 13.4857 80.707 13.6178 80.707 13.7637C80.707 13.946 80.7389 14.0986 80.8027 14.2217C80.8711 14.3447 80.9691 14.4541 81.0967 14.5498C81.2243 14.6455 81.3792 14.7321 81.5615 14.8096C81.7438 14.887 81.9512 14.9714 82.1836 15.0625C82.4935 15.181 82.7715 15.304 83.0176 15.4316C83.2637 15.5547 83.4733 15.696 83.6465 15.8555C83.8197 16.0104 83.9518 16.1904 84.043 16.3955C84.1387 16.6006 84.1865 16.8444 84.1865 17.127C84.1865 17.4733 84.109 17.7741 83.9541 18.0293C83.8037 18.2845 83.6009 18.4964 83.3457 18.665C83.0905 18.8337 82.7965 18.959 82.4639 19.041C82.1312 19.123 81.7826 19.1641 81.418 19.1641C80.6979 19.1641 80.0736 19.0251 79.5449 18.7471Z" fill="white"></path>
</svg>
